<svg xmlns="http://www.w3.org/2000/svg" version="1.1" xmlns:xlink="http://www.w3.org/1999/xlink" xmlns:svgjs="http://svgjs.dev/svgjs" width="100%" height="100%" viewBox="0 0 1000 600"><rect width="1000" height="600" x="0" y="0" fill="#ee4e34"/><g><rect width="333.3333333333333" height="333.3333333333333" rx="13.333333333333334" ry="13.333333333333334" y="194.1090783862174" fill="#fcedda" transform="matrix(0.7272226274184236,0,0,0.7272226274184237,0,37.635722866603686)" x="171.88684082031253"/><path d="M349.47553911883557 327.42178545004293Q351.20821240252275 325.5962903833011 352.63147974269435 323.46138937304363Q354.054747082866 321.35742895713776 354.054747082866 318.4490130880914Q354.054747082866 315.5715378133966 353.0027668749131 313.25099323702983Q351.9817272613117 310.8995080663115 350.1252916002183 309.16683478262433L350.1252916002183 309.16683478262433Q345.88643017405496 305.3611416773829 341.09063804956367 305.3611416773829Q336.3257865194239 305.3611416773829 333.4483112447291 306.7534684232029Q330.53989537568276 308.1767357633745 328.37405377107376 310.80668628325685L328.37405377107376 310.80668628325685Q323.7948458070433 316.22129029477935 323.7948458070433 325.5962903833011L323.7948458070433 325.5962903833011Q323.7948458070433 337.7559439634629 331.0968260740108 347.2237658350394L331.0968260740108 347.2237658350394Q333.2626676786197 350.0703005153826 335.7688558210959 352.0195579595307L335.7688558210959 352.0195579595307L360.4594501136383 371.82153834452714Q375.58940075154965 384.4453008399624 375.58940075154965 401.83391486553734L375.58940075154965 401.83391486553734Q375.58940075154965 416.19035064465976 365.03865807766874 426.2151032145642L365.03865807766874 426.2151032145642Q354.79732134730335 435.7757468691953 341.21440042696986 435.7757468691953L341.21440042696986 435.7757468691953L325.86786562859766 435.7757468691953Q321.8455883628953 435.7757468691953 318.9062318994973 432.9601527832037Q315.96687543609943 430.11361810286036 315.96687543609943 427.0814398564078Q315.96687543609943 424.0183210156037 316.8022714835915 422.22376654321334Q317.60672693673195 420.4292120708231 319.02999427690355 419.036885325003L319.02999427690355 419.036885325003Q321.9693507403015 416.0975288616051 325.86786562859766 416.0975288616051L325.86786562859766 416.0975288616051L334.99534096230695 416.0975288616051Q341.6475687478917 416.0975288616051 345.66984601359405 412.6631228885823Q349.6921232792965 409.22871691555946 349.6921232792965 404.55668716847435L349.6921232792965 404.55668716847435Q349.6921232792965 396.8215385805851 342.85425192760243 390.6334197102737L342.85425192760243 390.6334197102737L324.22801412796514 375.41064728930775Q310.98543974549875 364.64332045496593 305.5398951396248 355.17549858338947L305.5398951396248 355.17549858338947Q299.444598052368 344.40817174904765 299.444598052368 327.5455478274492L299.444598052368 327.5455478274492Q299.444598052368 307.8673298198589 310.2119248867098 296.75965644765L310.2119248867098 296.75965644765Q320.7626675605907 285.77574545284733 339.6983113037436 285.77574545284733L339.6983113037436 285.77574545284733Q357.4272718671857 285.77574545284733 367.54484622014485 294.6247554373926Q377.66242057310393 303.50470601628945 377.66242057310393 318.9440625977163L377.66242057310393 318.9440625977163Q377.66242057310393 332.0009934140733 372.2168759672299 340.47871626639994L372.2168759672299 340.47871626639994Q366.6785095783012 349.203963873539 357.7366778107013 349.203963873539L357.7366778107013 349.203963873539Q352.4148955822335 349.203963873539 349.5993014962418 346.57401335365665L349.5993014962418 346.57401335365665Q344.8963311548052 342.0257459839778 344.8963311548052 337.7250033691114Q344.8963311548052 333.424260754245 346.3195984949768 331.35124093269064Q347.7428658351484 329.27822111113636 349.47553911883557 327.42178545004293Z " fill="#ee4e34" transform="matrix(0.7272226274184236,0,0,0.7272226274184237,0,37.635722866603686)"/><path d="M622.8458889977587 326.17586176855264Q624.0335039429593 324.92462459414486 625.0090447908027 323.46131332237985Q625.9845856386461 322.01920946035057 625.9845856386461 320.0257129451924Q625.9845856386461 318.05342383977 625.2635337076314 316.4628681095906Q624.5636891863525 314.8511049696755 623.2912446022088 313.66349002447487L623.2912446022088 313.66349002447487Q620.3858294684146 311.05497862698076 617.0986809593772 311.05497862698076Q613.8327398600755 311.05497862698076 611.8604507546531 312.00931206508835Q609.8669542394949 312.98485291293173 608.3824355579942 314.78748274046836L608.3824355579942 314.78748274046836Q605.243738917107 318.4987794442202 605.243738917107 324.92462459414486L605.243738917107 324.92462459414486Q605.243738917107 333.2591366202848 610.2486876147381 339.7486039994167L610.2486876147381 339.7486039994167Q611.7332062962388 341.69968569510337 613.4510064848325 343.03575250845404L613.4510064848325 343.03575250845404L630.374519453941 356.608494739318Q640.7449428147106 365.26111791149384 640.7449428147106 377.1796821829713L640.7449428147106 377.1796821829713Q640.7449428147106 387.0199203003477 633.5132160948284 393.8911210547226L633.5132160948284 393.8911210547226Q626.4935634723034 400.4442106630616 617.1835105983201 400.4442106630616L617.1835105983201 400.4442106630616L606.6646353694006 400.4442106630616Q603.9076721037562 400.4442106630616 601.8929681788624 398.5143363771107Q599.8782642539685 396.563254681424 599.8782642539685 394.4849285273229Q599.8782642539685 392.38539496348614 600.4508643168331 391.1553651988141Q601.0022569699619 389.925335434142 601.9777978178053 388.97100199603443L601.9777978178053 388.97100199603443Q603.9925017426991 386.9562980711405 606.6646353694006 386.9562980711405L606.6646353694006 386.9562980711405L612.9208212414394 386.9562980711405Q617.4804143346203 386.9562980711405 620.2373776002645 384.602275590475Q622.9943408659088 382.2482531098096 622.9943408659088 379.0459342397151L622.9943408659088 379.0459342397151Q622.9943408659088 373.7440818057838 618.3075033143135 369.5025998586388L618.3075033143135 369.5025998586388L605.5406426534071 359.0685542686621Q596.4638712865168 351.6883756806298 592.7313671730292 345.19890830149797L592.7313671730292 345.19890830149797Q588.5535074550913 337.8187297134657 588.5535074550913 326.2606914074956L588.5535074550913 326.2606914074956Q588.5535074550913 312.77277881557444 595.9336860431237 305.15931872044916L595.9336860431237 305.15931872044916Q603.1654127630059 297.63068826426684 616.1443475212697 297.63068826426684L616.1443475212697 297.63068826426684Q628.29619329984 297.63068826426684 635.231016283422 303.69600744868416Q642.1658392670041 309.78253404283726 642.1658392670041 320.365031500964L642.1658392670041 320.365031500964Q642.1658392670041 329.31455840943994 638.4333351535166 335.12538867702864L638.4333351535166 335.12538867702864Q634.6372088108218 341.10587822250307 628.5082673971973 341.10587822250307L628.5082673971973 341.10587822250307Q624.8605929226526 341.10587822250307 622.9307186367016 339.30324839496643L622.9307186367016 339.30324839496643Q619.7071923568714 336.18575916381485 619.7071923568714 333.2379292105491Q619.7071923568714 330.2900992572833 620.6827332047147 328.86920280498975Q621.6582740525581 327.44830635269614 622.8458889977587 326.17586176855264ZM672.4288129598838 393.2124839431794L672.4288129598838 328.4238472005395Q672.4288129598838 324.7761727259948 674.2950650166275 322.76146880110093L674.2950650166275 322.76146880110093Q677.4973838867221 319.47432029206357 681.3783398683597 319.47432029206357L681.3783398683597 319.47432029206357Q685.1108439818473 319.47432029206357 686.8922663996482 321.40419457801454L686.8922663996482 321.40419457801454Q690.1794149086857 324.7761727259948 690.1794149086857 328.4238472005395L690.1794149086857 328.4238472005395L690.1794149086857 393.2124839431794Q690.1794149086857 396.79653618851694 688.3131628519418 398.66278824526074L688.3131628519418 398.66278824526074Q685.0260143429044 401.9287293445624 682.2690510772602 401.9287293445624Q679.512087811616 401.9287293445624 677.8791172619651 401.22888482328347Q676.2249393025785 400.52904030200455 675.037324357378 399.4050475860111L675.037324357378 399.4050475860111Q672.4288129598838 396.8601584177241 672.4288129598838 393.2124839431794L672.4288129598838 393.2124839431794ZM681.3783398683597 285.77574622199654L681.3783398683597 285.77574622199654Q685.4713699473547 285.77574622199654 688.4616147200919 288.7659909947338L688.4616147200919 288.7659909947338Q691.4306520830934 291.73502835773525 691.4306520830934 294.78889535967966Q691.4306520830934 297.84276236162407 690.6247705131358 299.6453921891607Q689.7976815334425 301.42681460696156 688.4616147200919 302.78408883004795L688.4616147200919 302.78408883004795Q685.4713699473547 305.75312619304947 681.3783398683597 305.75312619304947L681.3783398683597 305.75312619304947Q677.2641023796291 305.75312619304947 674.2950650166275 302.78408883004795L674.2950650166275 302.78408883004795Q671.3048202438903 299.79384405731076 671.3048202438903 296.8035992845735L671.3048202438903 296.8035992845735Q671.3048202438903 291.73502835773525 674.2950650166275 288.7659909947338Q677.2641023796291 285.77574622199654 681.3783398683597 285.77574622199654ZM771.2977571478337 329.90836588204024L771.2977571478337 413.7200491576255Q771.2977571478337 422.8816501634587 764.8082897687019 429.30749531338336L764.8082897687019 429.30749531338336Q758.17037052142 435.77575528277947 749.1572213837369 435.77575528277947L749.1572213837369 435.77575528277947L735.9450051183802 435.77575528277947Q733.1244196235288 435.77575528277947 731.1521305181063 433.8458809968285Q729.1586340029481 431.9160067108775 729.1586340029481 429.0742138062904L729.1586340029481 429.0742138062904Q729.1586340029481 426.2324209017032 731.1521305181063 424.2601317962808Q733.1244196235288 422.2878426908584 735.9450051183802 422.2878426908584L735.9450051183802 422.2878426908584L744.746080158706 422.2878426908584Q748.4785842721936 422.2878426908584 750.3448363289374 420.4215906341146L750.3448363289374 420.4215906341146Q753.547155199032 417.2192717640201 753.547155199032 413.5715972894754L753.547155199032 413.5715972894754L753.547155199032 397.39034366111724Q753.547155199032 395.9694472088236 752.7624810388102 395.48167678490194Q751.9778068785884 394.9939063609803 751.2355475378379 394.9939063609803Q750.4932881970875 394.9939063609803 749.8994807244873 395.6725434725235L749.8994807244873 395.6725434725235L748.6270361403438 396.8601584177241Q743.5584652135054 401.9287293445624 736.9841681954307 401.9287293445624L736.9841681954307 401.9287293445624Q729.0101821347981 401.9287293445624 723.6447074716597 395.3756397362234L723.6447074716597 395.3756397362234Q718.2792328085212 388.97100199603443 718.2792328085212 379.87302321940837L718.2792328085212 379.87302321940837L718.2792328085212 343.03575250845404Q718.2792328085212 333.93777373182803 724.7687001876532 327.44830635269614Q731.258167566785 320.9588389735643 740.356146343411 320.9588389735643L740.356146343411 320.9588389735643L762.3482302393578 320.9588389735643Q768.2438901458894 320.9588389735643 770.6191200362905 326.40914327564565L770.6191200362905 326.40914327564565Q771.2977571478337 328.04211382529644 771.2977571478337 329.90836588204024L771.2977571478337 329.90836588204024ZM735.9450051183802 343.269034015547L735.9450051183802 379.6397417123154Q735.9450051183802 383.37224582580296 737.811257175124 385.2384978825468L737.811257175124 385.2384978825468Q741.0984056841613 388.50443898184847 743.8129541303342 388.50443898184847Q746.5275025765069 388.50443898184847 748.0968508969506 387.9530463287196Q749.6661992173943 387.40165367559075 750.9386438015378 386.3624905985402L750.9386438015378 386.3624905985402Q753.547155199032 384.1145051665534 753.547155199032 380.53045292121584L753.547155199032 380.53045292121584L753.547155199032 334.3831293362782L744.746080158706 334.3831293362782Q741.0984056841613 334.3831293362782 739.1473239884747 336.3342110319649L739.1473239884747 336.3342110319649Q735.9450051183802 339.5365299020594 735.9450051183802 343.269034015547L735.9450051183802 343.269034015547ZM810.3193910615678 398.68399565499647Q808.4107241853526 400.52904030200455 806.8201684551732 401.22888482328347Q805.208405315258 401.9287293445624 803.3845680779857 401.9287293445624Q801.5607308407133 401.9287293445624 799.9489677007982 401.2712996427549Q798.3584119706188 400.5926625312117 797.1707970254183 399.4050475860111L797.1707970254183 399.4050475860111Q794.5622856279241 396.79653618851694 794.5622856279241 393.2124839431794L794.5622856279241 393.2124839431794L794.5622856279241 328.4238472005395Q794.5622856279241 324.7761727259948 796.4921599138751 322.76146880110093L796.4921599138751 322.76146880110093Q799.6308565547624 319.47432029206357 802.4938568690852 319.47432029206357Q805.3568571834081 319.47432029206357 806.7353388162303 320.1105425841353Q808.1138204490524 320.74676487620707 809.0893612968957 321.5526464461646L809.0893612968957 321.5526464461646Q810.5102577491892 322.76146880110093 811.0616504023182 323.991498565773Q811.6342504651827 325.22152833044504 812.079606069633 325.81533580304534Q812.5249616740832 326.40914327564565 813.458087702455 326.40914327564565Q814.391213730827 326.40914327564565 814.9850212034272 325.7729209835739Q815.5788286760276 325.13669869150215 816.9148954893783 323.8006318781515L816.9148954893783 323.8006318781515Q821.3896589436163 319.47432029206357 826.733926197019 319.47432029206357Q832.056986040686 319.47432029206357 835.6410382860234 321.2345353001287Q839.2038831216253 322.97354289845816 841.8123945191194 326.0274099004026L841.8123945191194 326.0274099004026Q847.5596025575009 332.5168772795344 847.5596025575009 341.5512338269533L847.5596025575009 341.5512338269533L847.5596025575009 393.2124839431794Q847.5596025575009 398.874862342618 842.2789575333054 401.186470003812L842.2789575333054 401.186470003812Q840.6247795739188 401.9287293445624 838.8009423366465 401.9287293445624Q836.9771050993741 401.9287293445624 835.3441345497233 401.2712996427549Q833.6899565903367 400.5926625312117 832.5023416451361 399.4050475860111L832.5023416451361 399.4050475860111Q829.893830247642 396.79653618851694 829.893830247642 393.2124839431794L829.893830247642 393.2124839431794L829.893830247642 341.76330792431054Q829.893830247642 338.1156334497658 828.112407829841 336.18575916381485L828.112407829841 336.18575916381485Q824.8888815500109 332.8986106547775 821.2412070754661 332.8986106547775L821.2412070754661 332.8986106547775Q815.2819249397274 332.8986106547775 812.9703172785335 337.5218259771655L812.9703172785335 337.5218259771655Q812.228057937783 339.0063446586663 812.228057937783 340.8725967154101L812.228057937783 340.8725967154101L812.228057937783 393.2124839431794Q812.228057937783 396.8601584177241 810.3193910615678 398.68399565499647ZM877.3772206459303 327.7452100889963L877.3772206459303 327.7452100889963Q877.3772206459303 323.27044663475834 881.555080363868 321.48902421695743L881.555080363868 321.48902421695743Q882.7639027188044 320.9588389735643 884.1635917613623 320.9588389735643L884.1635917613623 320.9588389735643L901.765741842014 320.9588389735643Q910.86372061864 320.9588389735643 917.3531879977719 327.44830635269614Q923.8426553769037 333.93777373182803 923.8426553769037 343.03575250845404L923.8426553769037 343.03575250845404L923.8426553769037 393.2124839431794Q923.8426553769037 398.874862342618 918.4771807137653 401.186470003812L918.4771807137653 401.186470003812Q916.8230027543786 401.9287293445624 914.8931284684278 401.9287293445624Q912.9420467727412 401.9287293445624 911.563565139919 401.29250705249063Q910.1850835070968 400.6774921701546 909.2307500689892 399.85040319046135L909.2307500689892 399.85040319046135Q908.403661089296 399.108143849711 907.5765721096027 397.7296622168888Q906.7706905396451 396.3511805840667 906.3041275254592 395.6725434725235Q905.858771921009 394.9939063609803 904.9044384829012 394.9939063609803L904.9044384829012 394.9939063609803Q903.928897635058 394.9939063609803 903.3350901624576 395.6725434725235L903.3350901624576 395.6725434725235L902.1474752172571 396.944988056667Q897.142526519626 401.9287293445624 890.4409850431368 401.9287293445624L890.4409850431368 401.9287293445624Q882.4457915727685 401.9287293445624 876.6349613051799 395.3756397362234L876.6349613051799 395.3756397362234Q870.8241310375912 388.8861723570915 870.8241310375912 379.87302321940837L870.8241310375912 379.87302321940837L870.8241310375912 369.58742949758175Q870.8241310375912 360.4894507209557 877.313598416723 353.99998334182385L877.313598416723 353.99998334182385Q883.7182361569121 347.5741381918992 892.9010445724809 347.5741381918992L892.9010445724809 347.5741381918992L906.1556756573091 347.5741381918992L906.1556756573091 343.269034015547Q906.1556756573091 339.5365299020594 904.310631010301 337.67027784531564L904.310631010301 337.67027784531564Q901.0234825012636 334.3831293362782 897.3758080267189 334.3831293362782L897.3758080267189 334.3831293362782L884.1635917613623 334.3831293362782Q881.406628495718 334.3831293362782 879.9221098142173 332.96223288398465L879.9221098142173 332.96223288398465Q877.3772206459303 330.58700299358344 877.3772206459303 327.7452100889963ZM888.4899033474501 369.7358813657318L888.4899033474501 379.7245713512583Q888.4899033474501 383.5206976939531 890.3561554041939 385.302120111754L890.3561554041939 385.302120111754Q893.6433039132313 388.4408167526413 896.4002671788755 388.4408167526413Q899.1572304445199 388.4408167526413 900.768993584435 387.91063150924816Q902.3595493146142 387.40165367559075 903.547164259815 386.42611282774743L903.547164259815 386.42611282774743Q906.1556756573091 384.34778667364634 906.1556756573091 380.9121862964589L906.1556756573091 380.9121862964589L906.1556756573091 360.934806325406L897.3758080267189 360.934806325406Q893.5584742742884 360.934806325406 891.6922222175447 362.80105838214973L891.6922222175447 362.80105838214973Q888.4899033474501 366.0033772522442 888.4899033474501 369.7358813657318L888.4899033474501 369.7358813657318ZM985.4925954786563 386.9562980711405Q988.3343883832435 386.9562980711405 990.2006404399873 388.97100199603443Q992.0456850869954 390.9857059209283 992.0456850869954 393.76387659630825Q992.0456850869954 396.563254681424 990.2006404399873 398.5143363771107Q988.3343883832435 400.4442106630616 985.4925954786563 400.4442106630616L985.4925954786563 400.4442106630616L976.5430685701804 400.4442106630616Q967.4450897935544 400.4442106630616 960.9556224144225 393.95474328392976L960.9556224144225 393.95474328392976Q954.5509846742336 387.5501055437408 954.5509846742336 378.3672971281719L954.5509846742336 378.3672971281719L954.5509846742336 334.0862255999781L945.7499096339077 334.0862255999781Q941.5084276867626 334.0862255999781 939.7057978592261 330.05681775019036L939.7057978592261 330.05681775019036Q939.1968200255686 328.86920280498975 939.1968200255686 327.533135991639L939.1968200255686 327.533135991639Q939.1968200255686 323.27044663475834 943.2262278753565 321.48902421695743L943.2262278753565 321.48902421695743Q944.413842820557 320.9588389735643 945.7499096339077 320.9588389735643L945.7499096339077 320.9588389735643L954.5509846742336 320.9588389735643L954.5509846742336 305.45622245674934Q954.5509846742336 299.5605625502178 959.9164593373721 297.24895488902376L959.9164593373721 297.24895488902376Q961.4858076578157 296.50669554827334 963.3520597145593 296.50669554827334L963.3520597145593 296.50669554827334Q966.9997341891041 296.50669554827334 968.865986245848 298.4577772439601L968.865986245848 298.4577772439601Q972.1531347548853 301.66009611405457 972.1531347548853 305.45622245674934L972.1531347548853 305.45622245674934L972.1531347548853 320.9588389735643L985.6410473468064 320.9588389735643Q988.2495587443007 320.9588389735643 989.6704551965943 322.37973542585786L989.6704551965943 322.37973542585786Q992.0456850869954 324.7761727259948 992.0456850869954 327.4907211721676Q992.0456850869954 330.2052696183404 990.2006404399873 332.1563513140271Q988.3343883832435 334.0862255999781 985.6410473468064 334.0862255999781L985.6410473468064 334.0862255999781L972.1531347548853 334.0862255999781L972.1531347548853 378.2188452600218Q972.1531347548853 381.9513493735094 974.0830090408363 383.7327717913103L974.0830090408363 383.7327717913103Q977.3701575498736 386.9562980711405 980.9542097952112 386.9562980711405L980.9542097952112 386.9562980711405L985.4925954786563 386.9562980711405ZM1047.6303060043306 322.7190539816295Q1049.5389728805458 320.8952167443571 1051.150736020461 320.1741648133425Q1052.7412917506404 319.47432029206357 1054.5651289879124 319.47432029206357Q1056.388966225185 319.47432029206357 1058.0007293651001 320.15295740360676Q1059.6124925050153 320.81038710541424 1060.8001074502158 322.01920946035057L1060.8001074502158 322.01920946035057Q1063.40861884771 324.62772085784474 1063.40861884771 328.19056569344656L1063.40861884771 328.19056569344656L1063.40861884771 392.9792024360864Q1063.40861884771 396.6480843203669 1061.5423667909663 398.66278824526074L1061.5423667909663 398.66278824526074Q1058.3400479208717 401.9287293445624 1055.455840196813 401.9287293445624Q1052.5928398824904 401.9287293445624 1051.1719434301967 401.29250705249063Q1049.772254387639 400.6774921701546 1048.8603357690026 399.85040319046135L1048.8603357690026 399.85040319046135Q1047.4606467264448 398.66278824526074 1046.88804666358 397.4327584805887Q1046.3366540104512 396.20272871591663 1045.8912984060012 395.5877138335806Q1045.4459428015507 394.9939063609803 1044.512816773179 394.9939063609803Q1043.579690744807 394.9939063609803 1042.9858832722066 395.63012865305205Q1042.3708683898708 396.2663509451238 1041.0348015765198 397.6024177584745L1041.0348015765198 397.6024177584745Q1036.560038122282 401.9287293445624 1031.236978278615 401.9287293445624Q1025.9139184349483 401.9287293445624 1022.3298661896106 400.1897217462329Q1018.7458139442731 398.42950673816773 1016.0524729078361 395.3756397362234L1016.0524729078361 395.3756397362234Q1010.3900945083974 388.8861723570915 1010.3900945083974 379.87302321940837L1010.3900945083974 379.87302321940837L1010.3900945083974 328.19056569344656Q1010.3900945083974 322.528187294008 1015.7555691715359 320.21657963281393L1015.7555691715359 320.21657963281393Q1017.3249174919796 319.47432029206357 1019.1487547292519 319.47432029206357Q1020.99379937626 319.47432029206357 1022.6267699259108 320.15295740360676Q1024.2597404755616 320.81038710541424 1025.447355420762 322.01920946035057L1025.447355420762 322.01920946035057Q1028.0558668182562 324.62772085784474 1028.0558668182562 328.19056569344656L1028.0558668182562 328.19056569344656L1028.0558668182562 379.6397417123154Q1028.0558668182562 383.37224582580296 1029.9221188750003 385.2384978825468L1029.9221188750003 385.2384978825468Q1033.2092673840375 388.50443898184847 1036.7933196293752 388.50443898184847L1036.7933196293752 388.50443898184847Q1042.6889795359066 388.50443898184847 1045.0005871971007 383.9024310691961L1045.0005871971007 383.9024310691961Q1045.7428465378512 382.39670497795964 1045.7428465378512 380.53045292121584L1045.7428465378512 380.53045292121584L1045.7428465378512 328.19056569344656Q1045.7428465378512 324.54289121890184 1047.6303060043306 322.7190539816295ZM1121.2624326067676 319.47432029206357L1121.2624326067676 319.47432029206357Q1123.1286846635116 319.47432029206357 1124.9101070813126 320.0045055354567Q1126.7127369088494 320.5134833691141 1128.2608778195572 321.6374760851075L1128.2608778195572 321.6374760851075Q1131.8449300648945 324.24598748260166 1131.8449300648945 328.86920280498975L1131.8449300648945 328.86920280498975Q1131.8449300648945 332.60170691847736 1129.9150557789435 334.4679589752211L1129.9150557789435 334.4679589752211Q1126.564285040699 337.67027784531564 1123.6588699069048 337.67027784531564L1123.6588699069048 337.67027784531564Q1119.926365793417 337.67027784531564 1116.8724987914725 335.2738405451787L1116.8724987914725 335.2738405451787Q1114.4760614913357 333.72569963447074 1111.4858167185985 333.72569963447074Q1108.516779355597 333.72569963447074 1106.7989791670034 335.61315910095027Q1105.0811789784098 337.5218259771655 1105.0811789784098 340.42724111095987L1105.0811789784098 340.42724111095987L1105.0811789784098 393.1276543042365Q1105.0811789784098 396.71170654957405 1103.2149269216657 398.66278824526074L1103.2149269216657 398.66278824526074Q1099.864156183421 401.9287293445624 1097.1496077372485 401.9287293445624Q1094.4138518813397 401.9287293445624 1092.8232961511603 401.22888482328347Q1091.2115330112456 400.52904030200455 1090.0239180660446 399.3202179470682L1090.0239180660446 399.3202179470682Q1087.4154066685505 396.71170654957405 1087.4154066685505 393.1276543042365L1087.4154066685505 393.1276543042365L1087.4154066685505 328.4238472005395Q1087.4154066685505 324.7761727259948 1089.3452809545015 322.76146880110093L1089.3452809545015 322.76146880110093Q1092.4839775953888 319.47432029206357 1095.3469779097118 319.47432029206357Q1098.2311856337706 319.47432029206357 1099.6308746763284 320.1105425841353Q1101.051771128622 320.74676487620707 1102.0273119764652 321.5526464461646L1102.0273119764652 321.5526464461646Q1103.3633787898157 322.76146880110093 1103.9571862624161 323.991498565773Q1104.572201144752 325.22152833044504 1104.9751419297309 325.81533580304534Q1105.3780827147098 326.40914327564565 1106.3112087430818 326.40914327564565Q1107.2443347714534 326.40914327564565 1107.8381422440539 325.81533580304534L1107.8381422440539 325.81533580304534L1109.1742090574044 324.54289121890184Q1115.0062467347288 319.47432029206357 1121.2624326067676 319.47432029206357ZM1189.8471956921026 386.9562980711405Q1192.6889885966898 386.9562980711405 1194.6188628826408 388.97100199603443Q1196.569944578327 390.9857059209283 1196.569944578327 393.76387659630825Q1196.569944578327 396.563254681424 1194.6188628826408 398.5143363771107Q1192.6889885966898 400.4442106630616 1189.8471956921026 400.4442106630616L1189.8471956921026 400.4442106630616L1172.2662530211865 400.4442106630616Q1163.1682742445605 400.4442106630616 1156.6788068654287 393.95474328392976Q1150.1893394862968 387.4652759047979 1150.1893394862968 378.3672971281719L1150.1893394862968 378.3672971281719L1150.1893394862968 341.76330792431054Q1150.1893394862968 331.626166070634 1157.0605402406718 325.58205429595233L1157.0605402406718 325.58205429595233Q1164.207437321611 319.47432029206357 1176.7410164754242 319.47432029206357L1176.7410164754242 319.47432029206357Q1189.104936351352 319.47432029206357 1196.273040842027 325.58205429595233L1196.273040842027 325.58205429595233Q1203.207863825609 331.7109957095769 1203.207863825609 341.9117597924606L1203.207863825609 341.9117597924606L1203.207863825609 362.80105838214973Q1203.207863825609 366.5123550859016 1201.3416117688653 368.3786071426454L1201.3416117688653 368.3786071426454Q1198.1392928987707 371.5809260127399 1194.3219591463403 371.5809260127399L1194.3219591463403 371.5809260127399L1167.8551117961556 371.5809260127399L1167.8551117961556 378.2188452600218Q1167.8551117961556 382.03617901245235 1169.7213638528992 383.8176014302532L1169.7213638528992 383.8176014302532Q1173.008512361937 386.9562980711405 1176.6561868364815 386.9562980711405L1176.6561868364815 386.9562980711405L1189.8471956921026 386.9562980711405ZM1185.5208841060144 358.538369025269L1185.5208841060144 341.76330792431054Q1185.5208841060144 338.03080381082293 1183.6758394590065 336.18575916381485L1183.6758394590065 336.18575916381485Q1180.3886909499693 332.8986106547775 1176.7410164754242 332.8986106547775L1176.7410164754242 332.8986106547775Q1173.008512361937 332.8986106547775 1171.0574306662502 334.82848494072846L1171.0574306662502 334.82848494072846Q1167.8551117961556 338.03080381082293 1167.8551117961556 341.76330792431054L1167.8551117961556 341.76330792431054L1167.8551117961556 358.538369025269L1185.5208841060144 358.538369025269Z " fill="#fcedda" transform="matrix(0.7272226274184236,0,0,0.7272226274184237,0,37.635722866603686)"/></g></svg>